<svg width="31" height="36" viewBox="0 0 31 36" fill="none" xmlns="http://www.w3.org/2000/svg">
<g clip-path="url(#clip0_14_537)">
<path d="M30.3646 28.0543C30.062 28.7349 29.7443 29.3637 29.4114 29.9408C29.0786 30.5179 28.7306 31.0727 28.3675 31.6054V31.561C27.8531 32.2713 27.3841 32.8779 26.9605 33.381C26.5368 33.8841 26.1586 34.2836 25.8258 34.5795C25.3416 35.0234 24.8197 35.3637 24.2599 35.6005C23.7001 35.8372 23.1327 35.9556 22.5578 35.9556C22.1342 35.9556 21.6728 35.8964 21.1735 35.7781C20.6742 35.6597 20.122 35.4821 19.5168 35.2454C18.9419 35.0086 18.3821 34.8385 17.8375 34.7349C17.2928 34.6313 16.7784 34.5795 16.2943 34.5795C15.7799 34.5795 15.2428 34.6313 14.683 34.7349C14.1232 34.8385 13.5408 35.0086 12.9356 35.2454C12.3304 35.4821 11.7858 35.6671 11.3016 35.8002C10.8175 35.9334 10.3939 36 10.0307 36C9.48609 36.0296 8.93387 35.926 8.37409 35.6893C7.8143 35.4525 7.24695 35.0826 6.67204 34.5795C6.33919 34.254 5.94583 33.8323 5.49195 33.3144C5.03806 32.7965 4.55393 32.1677 4.03953 31.4279C3.46461 30.6584 2.94266 29.815 2.47365 28.8977C2.00463 27.9803 1.57345 27.0037 1.18009 25.9679C0.786723 24.8434 0.491704 23.7337 0.295022 22.6387C0.0983402 21.5438 0 20.4784 0 19.4427C0 18.2293 0.136163 17.1048 0.408492 16.069C0.680821 15.0333 1.08931 14.0715 1.63397 13.1837C2.02733 12.5031 2.5039 11.889 3.06369 11.3416C3.62348 10.7941 4.25134 10.3132 4.94729 9.89889C5.61299 9.51418 6.33162 9.21085 7.10322 8.9889C7.87482 8.76695 8.6691 8.64118 9.48609 8.61159C9.93997 8.61159 10.4619 8.67817 11.052 8.81134C11.642 8.94451 12.3001 9.14427 13.0264 9.4106C13.7223 9.67694 14.3048 9.8767 14.7738 10.0099C15.2428 10.143 15.5832 10.2096 15.795 10.2096C15.9463 10.2096 16.2792 10.1356 16.7936 9.98767C17.308 9.8397 18.0039 9.60296 18.8814 9.27744C19.6984 8.9815 20.4549 8.77435 21.1508 8.65598C21.8468 8.53761 22.4822 8.50801 23.0571 8.5672C24.6003 8.68557 25.9544 9.04069 27.1193 9.63255C28.2843 10.2244 29.2601 11.0678 30.0469 12.1628C28.6549 12.9618 27.6186 13.9383 26.9378 15.0925C26.257 16.2466 25.9165 17.5635 25.9165 19.0432C25.9165 20.1973 26.1359 21.2478 26.5747 22.1948C27.0134 23.1418 27.6413 24 28.4583 24.7694C28.8214 25.0949 29.2147 25.3983 29.6384 25.6794C30.062 25.9605 30.5007 26.1899 30.9546 26.3674L31 26.4118C30.9092 26.6782 30.8109 26.9519 30.705 27.233C30.5991 27.5142 30.4856 27.7879 30.3646 28.0543ZM23.284 0.754624C23.284 1.64242 23.1101 2.50801 22.7621 3.35142C22.4141 4.19483 21.9073 5.00123 21.2416 5.77065C20.4246 6.68804 19.5395 7.39827 18.5864 7.90136C17.6332 8.40444 16.6271 8.61159 15.5681 8.52281C15.5378 8.43403 15.5227 8.33046 15.5227 8.21208C15.5227 8.09371 15.5227 7.97534 15.5227 7.85697C15.5227 6.96917 15.7042 6.08139 16.0674 5.19359C16.4305 4.30579 16.96 3.49199 17.6559 2.75216C17.9888 2.36745 18.3746 2.01233 18.8133 1.68681C19.2521 1.36128 19.7286 1.08015 20.243 0.843403C20.7877 0.577064 21.3021 0.377312 21.7862 0.244143C22.2704 0.110974 22.7545 0.0295926 23.2387 0C23.2387 0.118373 23.2462 0.244143 23.2613 0.377312C23.2765 0.510481 23.284 0.636251 23.284 0.754624Z" fill="#BAF2E2"/>
</g>
<defs>
<clipPath id="clip0_14_537">
<rect width="31" height="36" fill="white"/>
</clipPath>
</defs>
</svg>
