<svg width="32" height="33" viewBox="0 0 32 33" fill="none" xmlns="http://www.w3.org/2000/svg">
<g clip-path="url(#clip0_14_535)">
<path d="M31.6134 13.5118H16.3651V19.878H25.1705C24.7409 21.899 23.7316 23.4652 22.1423 24.5768C20.553 25.6883 18.6273 26.2441 16.3651 26.2441C15.0192 26.2441 13.7593 25.9987 12.5852 25.5079C11.4112 24.9882 10.3875 24.2881 9.51409 23.4075C8.64071 22.5269 7.96063 21.4948 7.47383 20.311C6.95839 19.1273 6.70067 17.8714 6.70067 16.5433C6.70067 16.5144 6.70067 16.5 6.70067 16.5C6.70067 15.143 6.95839 13.8727 7.47383 12.689C7.96063 11.5052 8.64071 10.4731 9.51409 9.59252C10.3875 8.71194 11.4112 8.02625 12.5852 7.53543C13.7593 7.01575 15.0192 6.75591 16.3651 6.75591C17.5105 6.75591 18.5987 6.95079 19.6295 7.34055C20.6604 7.73032 21.5767 8.25721 22.3785 8.92126L27.1463 4.11417C25.7145 2.84383 24.0823 1.84056 22.2497 1.10433C20.417 0.368106 18.4555 0 16.3651 0C16.3651 0 16.3579 0 16.3436 0C16.3293 0 16.3221 0 16.3221 0C14.0599 0 11.9409 0.433067 9.9651 1.29921C7.98925 2.16536 6.26399 3.34186 4.78926 4.82874C3.31453 6.31562 2.14766 8.05511 1.28859 10.0472C0.429526 12.0394 0 14.1758 0 16.4567C0 16.4567 0 16.4639 0 16.4783C0 16.4928 0 16.5 0 16.5C0 16.5 0 16.5072 0 16.5217C0 16.5361 0 16.5433 0 16.5433C0 18.8242 0.429526 20.9606 1.28859 22.9528C2.14766 24.9449 3.31453 26.6916 4.78926 28.1929C6.26399 29.6942 7.98925 30.878 9.9651 31.7441C11.9409 32.5814 14.0599 33 16.3221 33C16.3221 33 16.3293 33 16.3436 33C16.3579 33 16.3651 33 16.3651 33C18.4269 33 20.3884 32.6391 22.2497 31.9173C24.1396 31.1667 25.8076 30.0912 27.2537 28.6909C28.6998 27.2907 29.8523 25.5656 30.7114 23.5157C31.5705 21.4659 32 19.1273 32 16.5C32 16.0092 31.9642 15.5112 31.8926 15.0059C31.821 14.5007 31.728 14.0026 31.6134 13.5118Z" fill="#BAF2E2"/>
</g>
<defs>
<clipPath id="clip0_14_535">
<rect width="32" height="33" fill="white"/>
</clipPath>
</defs>
</svg>
